<svg width="100" height="45" viewBox="0 0 100 45" fill="none" xmlns="http://www.w3.org/2000/svg">
<g id="Capa_1" clip-path="url(#clip0_1539_5434)">
<path id="Vector" d="M5.32631 38.2566C5.32502 38.2126 5.33274 38.1687 5.349 38.1278C5.36526 38.0869 5.38972 38.0497 5.42087 38.0185C5.45201 37.9874 5.4892 37.9629 5.53014 37.9467C5.57108 37.9304 5.61491 37.9227 5.65894 37.924H7.06965C7.63915 37.924 8.09799 38.067 8.44616 38.353C8.79433 38.639 8.96842 39.0205 8.96842 39.4976C8.96842 39.9738 8.79247 40.3562 8.44057 40.6447C8.08867 40.9332 7.62423 41.0782 7.04727 41.0799H6.03322V42.5584C6.03455 42.6045 6.02635 42.6504 6.00912 42.6932C5.9919 42.7359 5.96602 42.7747 5.93312 42.8071C5.86417 42.8708 5.7737 42.9063 5.67977 42.9063C5.58583 42.9063 5.49536 42.8708 5.42641 42.8071C5.39363 42.7746 5.36783 42.7358 5.35062 42.6931C5.3334 42.6503 5.32513 42.6044 5.32631 42.5584V38.2566ZM6.02576 38.5519V40.4501H7.11503C7.44766 40.4501 7.71625 40.363 7.91893 40.1889C8.01853 40.1041 8.09763 39.9979 8.15028 39.8781C8.20294 39.7584 8.22779 39.6283 8.22296 39.4976C8.22817 39.3672 8.20355 39.2374 8.15097 39.118C8.09839 38.9986 8.01924 38.8928 7.91956 38.8087C7.71687 38.6371 7.44828 38.5519 7.11566 38.5519H6.02576Z" fill="#505050"/>
<path id="Vector_2" d="M9.55458 41.0284C9.54951 40.774 9.59541 40.5211 9.68959 40.2847C9.78377 40.0483 9.92432 39.8332 10.1029 39.6519C10.2745 39.4687 10.4827 39.3235 10.7139 39.2257C10.9451 39.1279 11.1943 39.0797 11.4453 39.0843C11.7814 39.0821 12.1118 39.1705 12.402 39.3402C12.6921 39.5099 12.9312 39.7546 13.0941 40.0486C13.2579 40.3495 13.3437 40.6867 13.3437 41.0294C13.3437 41.372 13.2579 41.7092 13.0941 42.0102C12.9331 42.3035 12.6971 42.5487 12.4102 42.7208C12.1197 42.8929 11.7882 42.9837 11.4506 42.9837C11.1129 42.9837 10.7814 42.8929 10.4909 42.7208C10.2043 42.5484 9.96832 42.3032 9.807 42.0102C9.63951 41.7102 9.55255 41.372 9.55458 41.0284ZM12.6558 41.0284C12.6663 40.6864 12.5443 40.3536 12.3151 40.0996C12.2046 39.9819 12.0712 39.8882 11.9231 39.8241C11.775 39.76 11.6153 39.727 11.454 39.727C11.2926 39.727 11.1329 39.76 10.9848 39.8241C10.8367 39.8882 10.7033 39.9819 10.5929 40.0996C10.3619 40.3518 10.2383 40.6841 10.2484 41.026C10.2395 41.3689 10.3628 41.7022 10.5929 41.9567C10.7014 42.0773 10.8341 42.1737 10.9824 42.2398C11.1306 42.3058 11.2911 42.3399 11.4533 42.3399C11.6156 42.3399 11.7761 42.3058 11.9243 42.2398C12.0726 42.1737 12.2053 42.0773 12.3138 41.9567C12.5417 41.702 12.664 41.3701 12.6558 41.0284Z" fill="#505050"/>
<path id="Vector_3" d="M19.2131 39.1558C19.2672 39.1512 19.3215 39.1608 19.3707 39.1837C19.4199 39.2066 19.4623 39.242 19.4935 39.2864C19.5512 39.3734 19.5586 39.4874 19.5159 39.6283L18.5553 42.5181C18.4695 42.7801 18.2855 42.9111 18.0032 42.9111C17.721 42.9111 17.5533 42.7774 17.5003 42.5101L16.702 39.961L15.8937 42.5399C15.8407 42.7886 15.6707 42.9129 15.3839 42.9129C15.129 42.9129 14.9632 42.7919 14.8865 42.5498L13.9377 39.6588C13.8921 39.5079 13.9002 39.3863 13.962 39.2938C13.9947 39.2473 14.0389 39.2101 14.0904 39.1859C14.1419 39.1617 14.1988 39.1513 14.2554 39.1558C14.4395 39.1558 14.5553 39.2667 14.603 39.4884L15.3938 42.1283L16.2369 39.5264C16.2974 39.2777 16.4576 39.1533 16.7175 39.1533C16.9662 39.1533 17.1237 39.2793 17.19 39.5313L18.0374 42.1333L18.85 39.4636C18.9035 39.259 19.0241 39.1558 19.2131 39.1558Z" fill="#505050"/>
<path id="Vector_4" d="M23.7475 40.7899C23.753 40.8464 23.7459 40.9033 23.7268 40.9567C23.7077 41.01 23.677 41.0585 23.637 41.0986C23.5969 41.1387 23.5485 41.1695 23.4952 41.1887C23.4418 41.2079 23.3849 41.215 23.3285 41.2096H20.798C20.8264 41.5277 20.9704 41.8243 21.2028 42.0433C21.437 42.2624 21.7483 42.38 22.0688 42.3704C22.211 42.3716 22.3526 42.3544 22.4904 42.3194C22.5954 42.2947 22.6971 42.2573 22.7932 42.2081C22.8647 42.1677 22.9355 42.1304 23.0046 42.0962C23.0576 42.067 23.1164 42.0496 23.1768 42.0452C23.2481 42.0419 23.3178 42.0665 23.3714 42.1136C23.3964 42.1375 23.416 42.1666 23.4288 42.1988C23.4416 42.231 23.4472 42.2655 23.4454 42.3001C23.4454 42.4742 23.308 42.6317 23.0332 42.7726C22.7245 42.9214 22.3847 42.9941 22.0421 42.9846C21.691 42.9891 21.3453 42.8982 21.0417 42.7217C20.7494 42.5526 20.5089 42.3069 20.346 42.011C20.1803 41.7105 20.0947 41.3725 20.0973 41.0293C20.093 40.6885 20.1729 40.352 20.3299 40.0495C20.4812 39.7585 20.7102 39.5151 20.9914 39.3463C21.2828 39.1708 21.6174 39.0803 21.9576 39.0851C22.218 39.0822 22.4763 39.1332 22.7161 39.235C22.9309 39.3231 23.1238 39.4573 23.2812 39.6279C23.4262 39.7889 23.5421 39.9738 23.6238 40.1744C23.7047 40.3696 23.7467 40.5787 23.7475 40.7899ZM21.9445 39.6708C21.8062 39.6678 21.6688 39.6929 21.5406 39.7446C21.4123 39.7964 21.2959 39.8736 21.1984 39.9717C20.9901 40.1827 20.8553 40.4552 20.8142 40.7489H23.0611C23.0197 40.4107 22.8972 40.1466 22.6937 39.9568C22.5934 39.8627 22.4756 39.7893 22.3469 39.7408C22.2183 39.6923 22.0813 39.6695 21.9439 39.6739L21.9445 39.6708Z" fill="#505050"/>
<path id="Vector_5" d="M26.3724 39.0841C26.5139 39.0818 26.6536 39.1169 26.7771 39.1861C26.8315 39.2136 26.8771 39.2559 26.9086 39.3081C26.94 39.3603 26.9561 39.4204 26.9549 39.4814C26.9568 39.524 26.9496 39.5666 26.934 39.6063C26.9184 39.6461 26.8946 39.6821 26.8642 39.712C26.8315 39.7418 26.7934 39.7647 26.7519 39.7797C26.7104 39.7946 26.6664 39.8012 26.6223 39.7991C26.553 39.7948 26.484 39.7859 26.4159 39.7724C26.3229 39.756 26.2287 39.7472 26.1342 39.7462C26.036 39.7427 25.9384 39.7629 25.8495 39.8049C25.7607 39.847 25.6833 39.9098 25.6238 39.9881C25.4994 40.1497 25.4373 40.3678 25.4373 40.6422V42.5633C25.4387 42.6084 25.4308 42.6533 25.4141 42.6953C25.3975 42.7373 25.3725 42.7754 25.3405 42.8073C25.3086 42.8392 25.2705 42.8643 25.2286 42.8809C25.1866 42.8975 25.1417 42.9054 25.0966 42.904C25.0509 42.9056 25.0054 42.898 24.9627 42.8818C24.92 42.8656 24.881 42.841 24.8479 42.8095C24.8152 42.7771 24.7897 42.7383 24.773 42.6954C24.7563 42.6526 24.7488 42.6068 24.7509 42.5608V39.5019C24.7487 39.4566 24.7559 39.4113 24.7723 39.3689C24.7886 39.3266 24.8136 39.2881 24.8457 39.256C24.8778 39.2239 24.9163 39.1989 24.9586 39.1826C25.001 39.1663 25.0463 39.159 25.0916 39.1612C25.1372 39.1597 25.1827 39.1673 25.2254 39.1836C25.2681 39.1998 25.3071 39.2243 25.3403 39.2557C25.3734 39.2878 25.3994 39.3265 25.4164 39.3694C25.4335 39.4123 25.4412 39.4583 25.4391 39.5044V39.6287C25.665 39.2656 25.9761 39.0841 26.3724 39.0841Z" fill="#505050"/>
<path id="Vector_6" d="M30.8391 40.7899C30.8423 40.8459 30.8343 40.902 30.8155 40.9549C30.7967 41.0077 30.7675 41.0563 30.7297 41.0977C30.6883 41.1366 30.6393 41.1666 30.5858 41.1859C30.5324 41.2051 30.4755 41.2132 30.4188 41.2096H27.8883C27.9168 41.5277 28.0608 41.8243 28.2931 42.0434C28.5273 42.2623 28.8386 42.3799 29.1592 42.3704C29.3013 42.3716 29.443 42.3545 29.5807 42.3194C29.6858 42.2947 29.7874 42.2574 29.8835 42.2081C29.955 42.1677 30.0259 42.1304 30.0955 42.0962C30.1483 42.067 30.2069 42.0496 30.2671 42.0452C30.3385 42.042 30.4085 42.0665 30.4623 42.1136C30.4873 42.1375 30.5068 42.1666 30.5195 42.1988C30.5321 42.231 30.5377 42.2656 30.5357 42.3001C30.5357 42.4742 30.3985 42.6317 30.1241 42.7726C29.8154 42.9213 29.4756 42.994 29.133 42.9847C28.7819 42.9892 28.4362 42.8983 28.1327 42.7217C27.8401 42.5528 27.5992 42.307 27.4363 42.011C27.2706 41.7105 27.185 41.3725 27.1876 41.0293C27.1836 40.6886 27.2635 40.3521 27.4202 40.0495C27.5716 39.7583 27.8008 39.5149 28.0823 39.3463C28.3737 39.1707 28.7084 39.0802 29.0485 39.0852C29.3088 39.0822 29.5668 39.1332 29.8064 39.235C30.0214 39.3231 30.2145 39.4573 30.3722 39.6279C30.517 39.7889 30.6327 39.9738 30.7141 40.1744C30.7954 40.3695 30.8379 40.5786 30.8391 40.7899ZM29.0361 39.6708C28.8978 39.6679 28.7604 39.693 28.6321 39.7447C28.5039 39.7965 28.3875 39.8737 28.29 39.9717C28.0816 40.1827 27.9469 40.4553 27.9057 40.7489H30.1527C30.1112 40.4107 29.989 40.1467 29.7859 39.9568C29.6854 39.8626 29.5674 39.7892 29.4385 39.7407C29.3096 39.6921 29.1724 39.6694 29.0348 39.6739L29.0361 39.6708Z" fill="#505050"/>
<path id="Vector_7" d="M35.0141 37.5443C35.0595 37.5421 35.1048 37.5494 35.1471 37.5657C35.1895 37.5821 35.2279 37.6071 35.26 37.6392C35.2921 37.6713 35.3171 37.7097 35.3335 37.7521C35.3498 37.7944 35.3571 37.8397 35.3549 37.885V42.5555C35.3561 42.6014 35.348 42.6471 35.3312 42.6899C35.3143 42.7326 35.2889 42.7715 35.2566 42.8042C35.225 42.8362 35.1872 42.8614 35.1455 42.8783C35.1038 42.8952 35.0591 42.9034 35.0141 42.9024C34.968 42.904 34.9221 42.8961 34.8792 42.8791C34.8363 42.8621 34.7973 42.8365 34.7647 42.8039C34.7321 42.7712 34.7066 42.7322 34.6897 42.6893C34.6728 42.6463 34.665 42.6004 34.6666 42.5543V42.3056C34.5233 42.5123 34.3336 42.6827 34.1126 42.8029C33.883 42.9246 33.6264 42.9864 33.3666 42.9826C33.1255 42.9868 32.8864 42.9389 32.6655 42.8424C32.4446 42.7458 32.2471 42.6028 32.0864 42.4231C31.7403 42.05 31.5671 41.585 31.5666 41.0279C31.5615 40.6836 31.6409 40.3433 31.7979 40.0369C31.9451 39.7493 32.168 39.5075 32.4427 39.3374C32.7197 39.1664 33.0397 39.0778 33.3653 39.0819C33.6251 39.0776 33.8821 39.1361 34.1145 39.2522C34.3349 39.3648 34.5244 39.5296 34.6666 39.7322V37.885C34.6647 37.8397 34.6723 37.7944 34.6889 37.7521C34.7055 37.7098 34.7307 37.6715 34.763 37.6395C34.7962 37.6075 34.8357 37.5826 34.8788 37.5662C34.922 37.5499 34.968 37.5424 35.0141 37.5443ZM33.4635 42.3404C33.6263 42.3439 33.7878 42.3115 33.9365 42.2454C34.0853 42.1793 34.2176 42.0812 34.324 41.958C34.5532 41.7023 34.6758 41.3686 34.6666 41.0254C34.6765 40.6843 34.5545 40.3525 34.3259 40.099C34.2154 39.9812 34.0819 39.8873 33.9337 39.8231C33.7855 39.7589 33.6257 39.7258 33.4642 39.7258C33.3026 39.7258 33.1428 39.7589 32.9946 39.8231C32.8464 39.8873 32.7129 39.9812 32.6024 40.099C32.3719 40.3515 32.2486 40.6837 32.2586 41.0254C32.2496 41.3683 32.3727 41.7015 32.6024 41.9562C32.709 42.0795 32.8414 42.1778 32.9902 42.2442C33.139 42.3106 33.3006 42.3434 33.4635 42.3404Z" fill="#505050"/>
<path id="Vector_8" d="M40.4074 39.0837C40.6481 39.0799 40.8869 39.1278 41.1074 39.2244C41.328 39.3209 41.5252 39.4638 41.6857 39.6433C42.0305 40.0163 42.2032 40.4816 42.2036 41.0391C42.2078 41.382 42.1286 41.7208 41.9729 42.0264C41.8267 42.314 41.6043 42.5559 41.3301 42.7258C41.053 42.8968 40.733 42.9854 40.4074 42.9814C40.1486 42.9855 39.8927 42.9271 39.6613 42.811C39.4424 42.6988 39.2527 42.537 39.1074 42.3385V42.5611C39.1098 42.6064 39.1026 42.6517 39.0864 42.6941C39.0702 42.7365 39.0452 42.775 39.0132 42.8071C38.9811 42.8392 38.9426 42.8643 38.9003 42.8806C38.8579 42.8969 38.8126 42.9041 38.7673 42.9018C38.7216 42.9032 38.6762 42.8956 38.6335 42.8794C38.5908 42.8632 38.5517 42.8387 38.5186 42.8073C38.4861 42.7748 38.4608 42.7359 38.4442 42.6931C38.4276 42.6503 38.4201 42.6045 38.4222 42.5586V37.885C38.4205 37.8397 38.4282 37.7944 38.4448 37.7522C38.4613 37.7099 38.4865 37.6715 38.5186 37.6394C38.5516 37.6078 38.5906 37.5831 38.6333 37.5668C38.676 37.5504 38.7216 37.5428 38.7673 37.5443C38.8126 37.5422 38.8578 37.5495 38.9001 37.5659C38.9423 37.5823 38.9807 37.6073 39.0127 37.6394C39.0447 37.6715 39.0697 37.7099 39.086 37.7522C39.1023 37.7945 39.1096 37.8397 39.1074 37.885V39.7608C39.2507 39.554 39.4404 39.3837 39.6613 39.2634C39.8909 39.1417 40.1476 39.0799 40.4074 39.0837ZM40.316 42.3404C40.478 42.3449 40.639 42.3138 40.7877 42.2494C40.9363 42.1849 41.0691 42.0886 41.1765 41.9673C41.404 41.7134 41.5253 41.3817 41.5153 41.0409C41.5246 40.698 41.4027 40.3645 41.1746 40.1083C41.0687 39.9851 40.9367 39.8869 40.7882 39.8208C40.6398 39.7546 40.4785 39.7223 40.316 39.726C40.153 39.7233 39.9913 39.7563 39.8423 39.8227C39.6934 39.8891 39.5607 39.9872 39.4537 40.1102C39.2229 40.3635 39.0984 40.6959 39.1061 41.0384C39.0964 41.3806 39.2207 41.713 39.4524 41.9648C39.5608 42.086 39.694 42.1823 39.8431 42.2471C39.9922 42.312 40.1535 42.3438 40.316 42.3404Z" fill="#505050"/>
<path id="Vector_9" d="M46.0836 39.1569C46.1351 39.1536 46.1867 39.1633 46.2336 39.185C46.2805 39.2067 46.3212 39.2398 46.3521 39.2812C46.4143 39.3651 46.4143 39.4783 46.3633 39.6194L44.8849 43.4947C44.7605 43.8321 44.5997 44.0843 44.4024 44.2513C44.2018 44.419 43.9469 44.5075 43.6855 44.5C43.4826 44.5036 43.2822 44.4547 43.1036 44.3583C42.932 44.2638 42.8462 44.1458 42.8462 44.0045C42.8458 43.966 42.8533 43.9278 42.8681 43.8923C42.8829 43.8567 42.9048 43.8245 42.9324 43.7977C42.96 43.7708 42.9928 43.7499 43.0287 43.736C43.0647 43.7222 43.103 43.7158 43.1415 43.7173C43.2275 43.7281 43.3113 43.7518 43.3902 43.7875C43.4981 43.8308 43.6129 43.8544 43.7291 43.8572C43.7901 43.8587 43.8507 43.8473 43.9071 43.8239C43.9634 43.8004 44.0142 43.7654 44.0561 43.721C44.1427 43.6302 44.2256 43.474 44.3048 43.2522L44.4223 42.9345L42.9301 39.6667C42.868 39.5156 42.868 39.3925 42.9264 39.298C42.9579 39.2506 43.0015 39.2125 43.0526 39.1876C43.1038 39.1626 43.1606 39.1518 43.2174 39.1562C43.2573 39.1534 43.2975 39.1588 43.3352 39.1722C43.373 39.1856 43.4076 39.2066 43.4368 39.234C43.5009 39.3077 43.552 39.3918 43.5879 39.4826L44.7412 42.0939L45.7205 39.4746C45.7484 39.3841 45.7969 39.3013 45.8622 39.2327C45.9233 39.1796 46.0027 39.1524 46.0836 39.1569Z" fill="#505050"/>
<path id="Vector_10" d="M49.1129 38.256C49.1117 38.2127 49.1196 38.1697 49.136 38.1297C49.1523 38.0896 49.1769 38.0535 49.2081 38.0235C49.2395 37.9928 49.2768 37.9688 49.3177 37.9529C49.3586 37.937 49.4023 37.9295 49.4462 37.9308H51.0832C51.5197 37.9308 51.8854 38.0583 52.1806 38.3132C52.3212 38.4284 52.4341 38.5739 52.5106 38.7388C52.5872 38.9038 52.6254 39.0839 52.6226 39.2657C52.631 39.5094 52.5496 39.7477 52.3938 39.9353C52.2516 40.1071 52.0689 40.2408 51.8622 40.3245C52.1218 40.3989 52.3539 40.5476 52.53 40.7522C52.7092 40.9671 52.8028 41.2405 52.793 41.5201C52.7949 41.704 52.7566 41.886 52.6808 42.0536C52.6049 42.2211 52.4934 42.3701 52.354 42.49C52.0618 42.7561 51.6786 42.8889 51.2044 42.8885H49.4462C49.4021 42.8899 49.3582 42.8822 49.3172 42.866C49.2762 42.8498 49.2389 42.8253 49.2077 42.7942C49.1765 42.763 49.152 42.7258 49.1357 42.6848C49.1194 42.6438 49.1116 42.6 49.1129 42.5559V38.256ZM49.813 38.5513V40.0602H51.0117C51.2412 40.0679 51.4657 39.9919 51.6434 39.8464C51.7237 39.7825 51.7884 39.701 51.8322 39.6082C51.8761 39.5154 51.8981 39.4137 51.8964 39.3111C51.8974 39.2074 51.8747 39.105 51.8302 39.0114C51.7858 38.9178 51.7206 38.8355 51.6397 38.7708C51.4623 38.6224 51.2366 38.5443 51.0055 38.5513H49.813ZM49.813 40.6496V42.2612H51.1186C51.3634 42.2687 51.6022 42.1852 51.7889 42.0268C51.8731 41.9568 51.941 41.8691 51.9875 41.7699C52.034 41.6707 52.0582 41.5625 52.0582 41.4529C52.0582 41.3434 52.034 41.2352 51.9875 41.136C51.941 41.0368 51.8731 40.9491 51.7889 40.8791C51.602 40.7221 51.3638 40.6397 51.1199 40.6478L49.813 40.6496Z" fill="#505050"/>
<path id="Vector_11" d="M53.8441 38.3058C53.8426 38.2585 53.8507 38.2114 53.8679 38.1672C53.8851 38.1231 53.9111 38.0829 53.9442 38.0491C53.9763 38.0158 54.015 37.9895 54.0578 37.9718C54.1006 37.9542 54.1466 37.9455 54.1929 37.9465C54.2401 37.9449 54.2872 37.9533 54.3311 37.9709C54.375 37.9886 54.4147 38.0152 54.4478 38.0491C54.4811 38.0828 54.5072 38.123 54.5245 38.1671C54.5418 38.2112 54.55 38.2584 54.5485 38.3058V42.2315H56.7531C56.7963 42.2298 56.8394 42.2371 56.8797 42.2527C56.92 42.2683 56.9567 42.2919 56.9875 42.3222C57.0182 42.3543 57.0421 42.3923 57.0577 42.4338C57.0733 42.4754 57.0803 42.5197 57.0783 42.5641C57.0804 42.6073 57.0733 42.6505 57.0577 42.6909C57.0421 42.7313 57.0182 42.7679 56.9876 42.7985C56.957 42.8291 56.9203 42.853 56.88 42.8686C56.8396 42.8843 56.7964 42.8913 56.7531 42.8892H54.1761C54.132 42.8907 54.0881 42.8831 54.0471 42.8669C54.006 42.8507 53.9688 42.8263 53.9376 42.7951C53.9064 42.7639 53.882 42.7266 53.8658 42.6856C53.8496 42.6446 53.842 42.6007 53.8434 42.5566L53.8441 38.3058Z" fill="#505050"/>
<path id="Vector_12" d="M62.3385 40.4202C62.3394 40.7619 62.2713 41.1002 62.1383 41.415C62.012 41.7198 61.8284 41.9975 61.5974 42.2332C61.3661 42.4661 61.0915 42.6518 60.7892 42.7797C60.4768 42.9144 60.1401 42.9834 59.8 42.9824C59.4604 42.9834 59.1244 42.9137 58.8133 42.7778C58.1912 42.5055 57.7011 41.9996 57.4485 41.3693C57.1959 40.7389 57.201 40.0346 57.4629 39.408C57.5891 39.1019 57.7727 38.8227 58.0038 38.5855C58.2354 38.3518 58.5098 38.165 58.812 38.0352C59.1238 37.8999 59.4601 37.8301 59.8 37.8301C60.1399 37.8301 60.4761 37.8999 60.7879 38.0352C61.2506 38.2376 61.6442 38.5707 61.9203 38.9936C62.1964 39.4165 62.3431 39.9108 62.3422 40.4158L62.3385 40.4202ZM61.6049 40.4202C61.6075 40.0876 61.5242 39.7599 61.363 39.4689C61.2081 39.1845 60.981 38.9458 60.7046 38.777C60.4322 38.6105 60.1192 38.5224 59.8 38.5224C59.4808 38.5224 59.1677 38.6105 58.8954 38.777C58.6202 38.9443 58.3943 39.1816 58.2407 39.4646C58.102 39.72 58.0213 40.0028 58.0043 40.293C57.9873 40.5831 58.0345 40.8734 58.1424 41.1433C58.231 41.3658 58.3614 41.5693 58.5267 41.7426C58.69 41.9116 58.8845 42.0476 59.0993 42.143C59.3183 42.2425 59.5563 42.2934 59.7969 42.2922C60.1167 42.2954 60.431 42.2093 60.7046 42.0435C60.9802 41.8772 61.2073 41.6414 61.363 41.3596C61.5241 41.0729 61.6075 40.7491 61.6049 40.4202Z" fill="#505050"/>
<path id="Vector_13" d="M63.2048 40.4106C63.2016 40.0668 63.2649 39.7256 63.3913 39.4059C63.5117 39.1012 63.6897 38.8226 63.9154 38.5852C64.1491 38.3453 64.4306 38.1572 64.7417 38.0331C65.3509 37.7933 66.0232 37.7661 66.6498 37.956C66.8763 38.02 67.089 38.1254 67.2771 38.2669C67.4301 38.3912 67.5059 38.5118 67.5059 38.6306C67.5084 38.6719 67.5016 38.7131 67.4859 38.7514C67.4701 38.7896 67.446 38.8238 67.4151 38.8513C67.3516 38.9041 67.2708 38.9318 67.1882 38.929C67.1093 38.924 67.0323 38.9028 66.9619 38.8669C66.8678 38.8254 66.775 38.7788 66.6834 38.727C66.5614 38.6655 66.4326 38.6185 66.2997 38.5871C66.1305 38.5443 65.9564 38.5234 65.7818 38.5249C65.243 38.5249 64.8018 38.7071 64.4582 39.0714C64.1146 39.4357 63.9438 39.8821 63.9459 40.4106C63.9397 40.6555 63.982 40.8991 64.0703 41.1276C64.1587 41.356 64.2913 41.5648 64.4607 41.7417C64.8034 42.1023 65.2447 42.2824 65.7843 42.282C65.9589 42.283 66.1329 42.2621 66.3022 42.2199C66.4352 42.1895 66.564 42.1431 66.6858 42.0818C66.7779 42.0317 66.8707 41.9857 66.9644 41.9438C67.0349 41.9081 67.1118 41.887 67.1907 41.8816C67.2747 41.8794 67.3565 41.9092 67.4195 41.9649C67.4503 41.993 67.4744 42.0277 67.4901 42.0663C67.5058 42.1049 67.5127 42.1465 67.5103 42.1882C67.5103 42.3069 67.4344 42.4275 67.2815 42.5512C67.0935 42.693 66.8808 42.7984 66.6541 42.8621C66.3827 42.946 66.1001 42.9879 65.816 42.9865C65.3372 42.9945 64.8649 42.8743 64.4482 42.6383C64.0603 42.4194 63.7413 42.0964 63.5274 41.7057C63.3108 41.3087 63.1997 40.8628 63.2048 40.4106Z" fill="#505050"/>
<path id="Vector_14" d="M71.975 42.3333C72.0757 42.497 72.0992 42.6342 72.0453 42.7449C72.0191 42.7992 71.977 42.8442 71.9246 42.874C71.8721 42.9037 71.8119 42.9168 71.7518 42.9115C71.5881 42.9115 71.4532 42.8321 71.3471 42.6734L69.8232 40.7671H69.1126V42.5558C69.1137 42.6022 69.1052 42.6482 69.0875 42.691C69.0699 42.7339 69.0434 42.7725 69.01 42.8045C68.9758 42.8371 68.9355 42.8626 68.8915 42.8795C68.8474 42.8963 68.8004 42.9043 68.7532 42.9028C68.707 42.9044 68.661 42.8966 68.618 42.8796C68.575 42.8627 68.536 42.8371 68.5033 42.8045C68.4707 42.7718 68.4451 42.7328 68.4282 42.6898C68.4113 42.6468 68.4034 42.6008 68.405 42.5546V38.2559C68.4033 38.2098 68.4111 38.1638 68.428 38.1208C68.4449 38.0778 68.4705 38.0387 68.5032 38.0061C68.5358 37.9734 68.5749 37.9479 68.618 37.9311C68.661 37.9143 68.707 37.9066 68.7532 37.9084C68.8003 37.9068 68.8473 37.9146 68.8914 37.9314C68.9355 37.9481 68.9758 37.9735 69.01 38.006C69.0434 38.038 69.0699 38.0767 69.0875 38.1195C69.1052 38.1623 69.1137 38.2084 69.1126 38.2547V40.1081H69.7853L71.2718 38.1869C71.3236 38.1015 71.3902 38.026 71.4683 37.9637C71.5319 37.9208 71.6074 37.8991 71.684 37.9016C71.8326 37.9016 71.9327 37.9594 71.9769 38.0738C72.021 38.1882 72.0005 38.3144 71.9072 38.4499L70.379 40.3978L71.975 42.3333Z" fill="#505050"/>
<path id="Vector_15" d="M72.361 40.4106C72.3578 40.0668 72.4211 39.7257 72.5475 39.4059C72.668 39.1014 72.8457 38.8228 73.071 38.5852C73.3048 38.3452 73.5866 38.157 73.8979 38.0331C74.5069 37.7933 75.179 37.7661 75.8054 37.956C76.0322 38.0198 76.2451 38.1252 76.4333 38.2669C76.5859 38.3912 76.6621 38.5125 76.6621 38.6306C76.6645 38.6718 76.6576 38.7131 76.6419 38.7513C76.6262 38.7895 76.6021 38.8237 76.5714 38.8513C76.5078 38.9041 76.427 38.9317 76.3444 38.929C76.2653 38.924 76.1881 38.9028 76.1175 38.8669C76.0242 38.8254 75.9316 38.7788 75.8396 38.727C75.7175 38.6654 75.5885 38.6184 75.4554 38.5871C75.2861 38.5442 75.112 38.5233 74.9375 38.5249C74.3986 38.5249 73.9574 38.7071 73.6138 39.0714C73.2702 39.4357 73.0996 39.8821 73.1021 40.4106C73.0959 40.6554 73.1382 40.899 73.2264 41.1275C73.3147 41.3559 73.4471 41.5647 73.6163 41.7417C73.9595 42.1024 74.4007 42.2824 74.9399 42.282C75.1145 42.283 75.2885 42.2621 75.4578 42.2199C75.591 42.1896 75.72 42.1432 75.8421 42.0818C75.9341 42.0317 76.0267 41.9857 76.12 41.9438C76.1907 41.9081 76.2679 41.887 76.3469 41.8816C76.4297 41.8788 76.5107 41.907 76.5738 41.9606C76.6045 41.9888 76.6286 42.0234 76.6443 42.062C76.66 42.1006 76.6669 42.1422 76.6646 42.1838C76.6646 42.3026 76.5882 42.4232 76.4358 42.5469C76.2477 42.6888 76.0348 42.7942 75.8079 42.8578C75.5367 42.9416 75.2543 42.9836 74.9704 42.9821C74.4916 42.9903 74.0193 42.8701 73.6026 42.6339C73.2145 42.4151 72.8953 42.0921 72.6812 41.7013C72.4664 41.3053 72.3562 40.8611 72.361 40.4106Z" fill="#505050"/>
<path id="Vector_16" d="M81.0474 40.7031H78.29V42.5559C78.2913 42.6019 78.2832 42.6478 78.2661 42.6905C78.249 42.7333 78.2233 42.7721 78.1906 42.8046C78.1567 42.8372 78.1166 42.8627 78.0727 42.8796C78.0288 42.8964 77.982 42.9044 77.935 42.9028C77.8886 42.9041 77.8424 42.8961 77.7992 42.8792C77.7559 42.8624 77.7165 42.837 77.6832 42.8046C77.6504 42.7722 77.6246 42.7334 77.6074 42.6906C77.5902 42.6478 77.5819 42.602 77.5831 42.5559V38.256C77.5819 38.2099 77.5902 38.1641 77.6074 38.1213C77.6246 38.0785 77.6504 38.0397 77.6832 38.0073C77.7165 37.975 77.756 37.9497 77.7992 37.9329C77.8425 37.9162 77.8887 37.9083 77.935 37.9097C77.982 37.908 78.0288 37.9158 78.0727 37.9326C78.1166 37.9494 78.1567 37.9748 78.1906 38.0073C78.2233 38.0398 78.249 38.0786 78.2661 38.1213C78.2832 38.1641 78.2913 38.2099 78.29 38.256V40.0447H81.0474V38.256C81.0457 38.2099 81.0535 38.1639 81.0703 38.121C81.0872 38.078 81.1127 38.039 81.1453 38.0064C81.1779 37.9737 81.217 37.9482 81.2599 37.9313C81.3029 37.9145 81.3489 37.9067 81.395 37.9084C81.4419 37.9067 81.4888 37.9144 81.5327 37.9312C81.5766 37.948 81.6167 37.9734 81.6505 38.0061C81.6834 38.0384 81.7093 38.0772 81.7265 38.12C81.7437 38.1628 81.7519 38.2086 81.7506 38.2548V42.5547C81.7522 42.6008 81.7444 42.6467 81.7275 42.6897C81.7106 42.7326 81.6851 42.7716 81.6525 42.8043C81.6199 42.8369 81.5809 42.8625 81.538 42.8795C81.4951 42.8964 81.4492 42.9044 81.403 42.9028C81.356 42.9045 81.3092 42.8966 81.2653 42.8797C81.2214 42.8628 81.1813 42.8373 81.1475 42.8046C81.1147 42.7722 81.0889 42.7334 81.0717 42.6906C81.0545 42.6478 81.0462 42.602 81.0474 42.5559V40.7031Z" fill="#505050"/>
<path id="Vector_17" d="M87.3326 42.3784C87.3935 42.5301 87.3993 42.6544 87.35 42.7514C87.3244 42.8002 87.2853 42.8406 87.2373 42.8679C87.1894 42.8951 87.1346 42.908 87.0796 42.905C86.8756 42.9199 86.7256 42.809 86.6294 42.5724L86.2328 41.6192H83.8422L83.4449 42.5798C83.4101 42.6771 83.354 42.7655 83.2808 42.8385C83.2468 42.8655 83.2077 42.8854 83.1658 42.8968C83.1239 42.9083 83.0801 42.911 83.0371 42.905C82.9835 42.9074 82.9304 42.8946 82.8839 42.8681C82.8374 42.8416 82.7993 42.8024 82.7741 42.7551C82.725 42.6613 82.7293 42.5431 82.7871 42.402L84.5081 38.3744C84.5573 38.2374 84.6346 38.1123 84.735 38.007C84.8275 37.9317 84.9449 37.894 85.0639 37.9013C85.1842 37.8946 85.3027 37.9322 85.3972 38.007C85.4989 38.1112 85.5762 38.2367 85.6235 38.3744L87.3326 42.3784ZM84.1033 40.9907H85.9791L85.0409 38.7369L84.1033 40.9907Z" fill="#505050"/>
<path id="Vector_18" d="M88.3849 38.2557C88.3837 38.2096 88.392 38.1638 88.4092 38.121C88.4264 38.0782 88.4522 38.0395 88.485 38.007C88.5178 37.975 88.5567 37.9498 88.5995 37.9331C88.6422 37.9163 88.6878 37.9083 88.7337 37.9094C88.7806 37.9077 88.8275 37.9154 88.8714 37.9322C88.9153 37.949 88.9554 37.9744 88.9892 38.007C89.022 38.0395 89.0478 38.0782 89.065 38.121C89.0822 38.1638 89.0905 38.2096 89.0893 38.2557V42.5556C89.0905 42.6017 89.0822 42.6476 89.065 42.6903C89.0478 42.7331 89.022 42.7719 88.9892 42.8043C88.9554 42.837 88.9153 42.8626 88.8714 42.8795C88.8275 42.8963 88.7807 42.9042 88.7337 42.9026C88.6878 42.9036 88.6421 42.8954 88.5994 42.8786C88.5567 42.8617 88.5178 42.8364 88.485 42.8043C88.4522 42.7719 88.4264 42.7331 88.4092 42.6903C88.392 42.6476 88.3837 42.6017 88.3849 42.5556V38.2557Z" fill="#505050"/>
<path id="Vector_19" d="M94.3258 37.9081C94.3717 37.9067 94.4174 37.9146 94.4602 37.9314C94.5029 37.9482 94.5418 37.9735 94.5745 38.0057C94.6062 38.0387 94.631 38.0777 94.6474 38.1204C94.6639 38.1631 94.6716 38.2087 94.6702 38.2544V42.4679C94.6764 42.5838 94.6419 42.6981 94.5726 42.7912C94.5394 42.8306 94.4975 42.8617 94.4503 42.8823C94.4031 42.9029 94.3518 42.9124 94.3003 42.91C94.1901 42.9148 94.0812 42.8843 93.9894 42.8229C93.8847 42.74 93.7929 42.642 93.7171 42.5319L91.1717 39.1317V42.5512C91.1729 42.5975 91.1644 42.6435 91.1469 42.6863C91.1293 42.7291 91.1031 42.7678 91.0698 42.7999C91.0355 42.8325 90.9951 42.8579 90.9509 42.8748C90.9067 42.8916 90.8596 42.8996 90.8124 42.8981C90.7662 42.8998 90.7202 42.8919 90.6772 42.875C90.6342 42.8581 90.5952 42.8325 90.5625 42.7998C90.5298 42.7672 90.5043 42.7281 90.4873 42.6851C90.4704 42.6421 90.4626 42.5961 90.4642 42.55V38.3502C90.4572 38.2306 90.4948 38.1127 90.5699 38.0194C90.608 37.9789 90.6545 37.9472 90.7062 37.9265C90.7579 37.9059 90.8134 37.8969 90.869 37.9C90.9701 37.897 91.0694 37.9276 91.1512 37.9871C91.2464 38.0658 91.3286 38.159 91.3949 38.2631L93.9739 41.7274V38.2557C93.9721 38.2095 93.98 38.1635 93.9968 38.1205C94.0137 38.0775 94.0393 38.0384 94.072 38.0058C94.1047 37.9732 94.1438 37.9476 94.1868 37.9308C94.2299 37.914 94.2759 37.9063 94.3221 37.9081H94.3258Z" fill="#505050"/>
<path id="Vector_20" d="M16.2852 0.5C7.26135 0.5 0.866211 7.91913 0.866211 16.9548V17.0748C0.866211 26.8285 7.9179 33.4698 17.0611 33.4698C21.9616 33.4698 25.5477 31.8533 28.4158 29.2812C28.9542 28.7428 29.372 27.965 29.372 27.0672C29.372 25.3923 28.1174 24.1358 26.504 24.1358C25.6671 24.1358 25.189 24.3745 24.6512 24.7936C22.6194 26.4691 20.2294 27.546 17.183 27.546C12.52 27.546 8.87599 24.6736 8.09882 19.5256H27.8768C29.7295 19.5256 31.2832 18.0901 31.2832 16.0551C31.2851 8.75723 26.3224 0.5 16.2852 0.5ZM8.03789 14.7408C8.69569 9.83407 11.8031 6.42325 16.2255 6.42325C21.006 6.42325 23.7553 10.0734 24.2334 14.7408H8.03789Z" fill="#004228"/>
<path id="Vector_21" d="M77.48 1.35164C74.5722 2.24818 71.5163 4.6319 69.3975 7.41353L65.5782 12.263L57.5883 22.4035C56.361 24.0542 54.5555 25.4767 52.8395 26.0064C45.6162 28.2335 39.0545 22.1038 40.4981 14.9589C41.1615 11.6792 44.4293 8.35857 47.7003 7.65352C50.9202 6.96091 53.9431 7.89351 56.1036 9.79042L56.121 9.80472C56.4807 10.131 56.9052 10.3777 57.3667 10.5287C57.8282 10.6798 58.3164 10.7318 58.7994 10.6814C60.3301 10.5278 61.7496 9.09159 61.8863 7.55902C61.9388 6.99518 61.8519 6.42709 61.6332 5.90475C61.4145 5.3824 61.0708 4.92181 60.6323 4.56351C56.7776 1.19497 51.3318 -0.402264 45.5696 1.04326C40.5553 2.30103 35.311 7.44711 33.983 12.4446C30.5871 25.2274 42.206 36.5405 55.038 32.5825C57.9502 31.6841 61.0103 29.2954 63.1267 26.5082L65.5919 23.3746L66.0271 22.8213C66.0408 22.8045 66.0544 22.7884 66.0681 22.7734L75.0347 11.3876C76.2583 9.79912 78.0085 8.44312 79.6741 7.92957C87.3668 5.55642 94.3072 12.6578 91.6331 20.3723C90.8504 22.6298 88.3379 25.1416 86.0817 25.9238C82.3463 27.2188 78.7546 26.2601 76.313 24.053C73.6122 21.9471 71.4287 24.4042 71.4287 24.4042C71.4287 24.4042 69.3975 26.7258 71.6351 29.1462C75.516 32.6789 81.0954 34.3781 87.0043 32.8766C91.9937 31.6089 97.2125 26.4653 98.535 21.4902C101.931 8.70674 90.3119 -2.60693 77.48 1.35164Z" fill="#D7DE00"/>
<g id="Clip path group">
<mask id="mask0_1539_5434" style="mask-type:luminance" maskUnits="userSpaceOnUse" x="33" y="0" width="67" height="34">
<g id="clip-path">
<path id="Vector_22" d="M77.48 1.35164C74.5722 2.24818 71.5163 4.6319 69.3975 7.41353L65.5782 12.263L57.5883 22.4035C56.361 24.0542 54.5555 25.4767 52.8395 26.0064C45.6162 28.2335 39.0545 22.1038 40.4981 14.9589C41.1615 11.6792 44.4293 8.35857 47.7003 7.65352C50.9202 6.96091 53.9431 7.89351 56.1036 9.79042L56.121 9.80472C56.4807 10.131 56.9052 10.3777 57.3667 10.5287C57.8282 10.6798 58.3164 10.7318 58.7994 10.6814C60.3301 10.5278 61.7496 9.09159 61.8863 7.55902C61.9388 6.99518 61.8519 6.42709 61.6332 5.90475C61.4145 5.3824 61.0708 4.92181 60.6323 4.56351C56.7776 1.19497 51.3318 -0.402264 45.5696 1.04326C40.5553 2.30103 35.311 7.44711 33.983 12.4446C30.5871 25.2274 42.206 36.5405 55.038 32.5825C57.9502 31.6841 61.0103 29.2954 63.1267 26.5082L65.5919 23.3746L66.0271 22.8213C66.0408 22.8045 66.0544 22.7884 66.0681 22.7734L75.0347 11.3876C76.2583 9.79912 78.0085 8.44312 79.6741 7.92957C87.3668 5.55642 94.3072 12.6578 91.6331 20.3723C90.8504 22.6298 88.3379 25.1416 86.0817 25.9238C82.3463 27.2188 78.7546 26.2601 76.313 24.053C73.6122 21.9471 71.4287 24.4042 71.4287 24.4042C71.4287 24.4042 69.3975 26.7258 71.6351 29.1462C75.516 32.6789 81.0954 34.3781 87.0043 32.8766C91.9937 31.6089 97.2125 26.4653 98.535 21.4902C101.931 8.70674 90.3119 -2.60693 77.48 1.35164Z" fill="white"/>
</g>
</mask>
<g mask="url(#mask0_1539_5434)">
<g id="Group">
<path id="Vector_23" d="M54.1045 29.2168C61.953 29.2168 68.3154 22.8543 68.3154 15.0059C68.3154 7.15738 61.953 0.794922 54.1045 0.794922C46.256 0.794922 39.8936 7.15738 39.8936 15.0059C39.8936 22.8543 46.256 29.2168 54.1045 29.2168Z" fill="url(#paint0_linear_1539_5434)"/>
<path id="Vector_24" d="M78.3862 33.0615C86.2347 33.0615 92.5972 26.6991 92.5972 18.8506C92.5972 11.0021 86.2347 4.63965 78.3862 4.63965C70.5377 4.63965 64.1753 11.0021 64.1753 18.8506C64.1753 26.6991 70.5377 33.0615 78.3862 33.0615Z" fill="url(#paint1_linear_1539_5434)"/>
</g>
</g>
</g>
</g>
<defs>
<linearGradient id="paint0_linear_1539_5434" x1="33.3573" y1="19.9144" x2="64.4949" y2="12.5475" gradientUnits="userSpaceOnUse">
<stop offset="0.41" stop-color="#7BAA00"/>
<stop offset="0.89" stop-color="#D7DE00" stop-opacity="0"/>
</linearGradient>
<linearGradient id="paint1_linear_1539_5434" x1="99.1334" y1="13.942" x2="67.9958" y2="21.3089" gradientUnits="userSpaceOnUse">
<stop offset="0.41" stop-color="#7BAA00"/>
<stop offset="0.89" stop-color="#D7DE00" stop-opacity="0"/>
</linearGradient>
<clipPath id="clip0_1539_5434">
<rect width="98.2654" height="44" fill="white" transform="translate(0.867188 0.5)"/>
</clipPath>
</defs>
</svg>
